:SAMPLES-PER-SECOND 30
:FULLY-SPECIFIED
:DEGREES
492
root  0.160989 34.3354 27.0848 2.4161 13.9483 -1.65519
LeftUpLeg  -13.8591 5.65941 5.7199
LeftLeg  11.4067 -2.42623 -0.330331
LeftFoot  9.03575 0.0308268 -0.344496
LeftToes  -22.1925 2.60077e-006 -1.42232e-007
Spine  1.96145 3.48078 -0.929206
Spine1  3.50209 7.3602 -1.98574
RightShoulder  0.0657263 5.65454 5.26382
RightArm  -20.6027 0.879207 61.6291
RightForeArm  83.47 78.6069 62.0714
RightHand  -1.51516 9.65125 -17.4452
LeftShoulder1  0.0377132 0.718892 -10.602
LeftArm  -19.3845 14.1844 -68.257
LeftForeArm  34.7231 -12.1239 -2.16319
LeftHand  0.160336 4.09593 4.10461
HEad  -4.8422 -23.4069 -0.0892566
RightUpLeg  -9.85443 -8.16912 0.644892
RightLeg  15.7385 -1.5272 -0.325669
RightFoot  -5.23099 -0.00777242 0.20731
RightToes  -26.4375 -0.123534 -0.229231
493
root  0.188434 34.3447 27.046 2.3995 13.8075 -1.65403
LeftUpLeg  -13.821 5.76687 5.66721
LeftLeg  11.311 -2.40516 -0.323375
LeftFoot  9.1039 0.0303299 -0.336914
LeftToes  -22.2894 2.60077e-006 -1.42232e-007
Spine  2.00358 3.47251 -0.864392
Spine1  3.60031 7.37926 -1.8992
RightShoulder  0.065373 5.13647 4.2942
RightArm  -25.0051 4.53634 63.311
RightForeArm  91.4 79.5025 74.0981
RightHand  -1.48529 9.73043 -16.9588
LeftShoulder1  0.0359715 0.66983 -10.5599
LeftArm  -20.1285 14.9245 -67.6852
LeftForeArm  35.2325 -11.9584 -2.13235
LeftHand  0.163272 4.04643 4.13088
HEad  -5.50225 -23.3419 -0.199052
RightUpLeg  -9.88363 -7.80296 0.603432
RightLeg  15.7056 -1.70876 -0.363372
RightFoot  -5.31358 -0.00853207 0.227328
RightToes  -26.2952 -0.123699 -0.229442
494
root  0.213572 34.3604 27.0211 2.429 13.8658 -1.6748
LeftUpLeg  -13.7565 5.80495 5.61894
LeftLeg  11.0092 -2.49227 -0.321646
LeftFoot  9.27445 0.0313993 -0.353896
LeftToes  -22.2979 2.60077e-006 -1.42232e-007
Spine  2.02155 3.45876 -0.839641
Spine1  3.64647 7.37305 -1.88092
RightShoulder  0.0649932 4.77683 3.43181
RightArm  -28.4658 7.32631 64.4325
RightForeArm  93.787 79.7539 80.5123
RightHand  -1.13849 10.0654 -12.5121
LeftShoulder1  0.0348386 0.501669 -10.3542
LeftArm  -20.9466 15.4871 -67.2033
LeftForeArm  35.5389 -11.8342 -2.10928
LeftHand  0.166263 3.99837 4.20485
HEad  -6.25219 -23.6634 0.00257912
RightUpLeg  -9.87944 -7.89649 0.573287
RightLeg  15.5652 -1.63576 -0.343613
RightFoot  -5.18989 -0.00732754 0.216506
RightToes  -26.4677 -0.123866 -0.229662
495
root  0.241753 34.3747 27.0177 2.54677 14.0527 -1.7018
LeftUpLeg  -13.7266 5.82543 5.56039
LeftLeg  10.6112 -2.6717 -0.325808
LeftFoot  9.47874 0.0336891 -0.390001
LeftToes  -22.4635 2.60077e-006 -1.42232e-007
Spine  1.9872 3.45551 -0.832461
Spine1  3.58789 7.39227 -1.87523
RightShoulder  0.0646548 4.56615 3.01891
RightArm  -29.2304 8.7977 64.2737
RightForeArm  94.0856 79.8078 82.6471
RightHand  -0.898812 9.74638 -10.1495
LeftShoulder1  0.0338391 0.285574 -10.1178
LeftArm  -21.7692 15.867 -66.804
LeftForeArm  35.6819 -11.705 -2.08546
LeftHand  0.169258 3.97676 4.33828
HEad  -7.31397 -24.38 0.55272
RightUpLeg  -9.85278 -8.0144 0.557183
RightLeg  15.3065 -1.65886 -0.340582
RightFoot  -5.19164 -0.00694333 0.218069
RightToes  -26.7708 -0.124034 -0.22989
496
root  0.268792 34.38 27.0307 2.6859 14.2982 -1.71518
LeftUpLeg  -13.7547 5.76827 5.50237
LeftLeg  10.3357 -2.84943 -0.333458
LeftFoot  9.56758 0.0357301 -0.422334
LeftToes  -22.4174 2.60077e-006 -1.42232e-007
Spine  1.9817 3.45686 -0.830297
Spine1  3.58969 7.36634 -1.85284
RightShoulder  0.0643175 4.39276 2.797
RightArm  -26.8416 9.12882 63.5944
RightForeArm  91.9473 79.7426 80.1329
RightHand  -0.844049 9.67074 -9.58915
LeftShoulder1  0.0329666 0.224378 -10.0004
LeftArm  -22.717 15.858 -66.4362
LeftForeArm  35.6194 -11.6143 -2.06891
LeftHand  0.170264 3.91706 4.35631
HEad  -8.6069 -25.2424 0.974429
RightUpLeg  -9.84055 -7.92343 0.545909
RightLeg  15.0889 -1.92858 -0.388316
RightFoot  -5.12059 -0.00795405 0.240936
RightToes  -26.6666 -0.124203 -0.230127
